# xmcd CD database file
#
# Track frame offsets:
#	150
#	19997
#	29675
#	49271
#	59012
#	74467
#	80689
#	94015
#	109694
#	122304
#
# Disc length: 2157 seconds
#
# Revision: 0
# Processed by: cddbd v1.5.2PL0 Copyright (c) Steve Scherf et al.
# Submitted via: Feurio! 1.68 - http://www.feurio.com
#
DISCID=8a086b0a
DTITLE=Pupsi, Anika and Thomas - Cds von Wolfgang Fey
DYEAR=1900
DGENRE=
TTITLE0=Schön ist die Liebe
TTITLE1=Knöllchenmann
TTITLE2=Schetääm
TTITLE3=Ahl Sau
TTITLE4=Hungk
TTITLE5=Feuchtbiotop
TTITLE6=Rex
TTITLE7=Hämoride
TTITLE8=Awe Maria
TTITLE9=Jlück un Friden
EXTD=
EXTT0=
EXTT1=
EXTT2=
EXTT3=
EXTT4=
EXTT5=
EXTT6=
EXTT7=
EXTT8=
EXTT9=
PLAYORDER=
